<svg xmlns="http://www.w3.org/2000/svg" viewBox="0 0 29 29" width="29" height="29">
	<style>
		tspan { white-space:pre }
		.shp0 { fill: #f28130 } 
	</style>
	<g id="Layer">
		<path id="Layer" fill-rule="evenodd" class="shp0" d="M14.57 0C16.44 0 18.28 0.37 20.01 1.09C21.73 1.8 23.3 2.85 24.62 4.17C25.94 5.49 26.98 7.05 27.7 8.78C28.41 10.5 28.78 12.35 28.78 14.21C28.78 19.96 25.32 25.15 20.01 27.35C14.7 29.55 8.58 28.33 4.52 24.26C0.45 20.2 -0.76 14.09 1.44 8.77C3.64 3.46 8.82 0 14.57 0ZM14.57 26.89C16.24 26.9 17.89 26.57 19.43 25.94C20.97 25.3 22.37 24.37 23.55 23.19C24.73 22.01 25.66 20.61 26.29 19.07C26.93 17.53 27.25 15.88 27.25 14.21C27.25 9.09 24.16 4.46 19.42 2.5C14.68 0.54 9.23 1.62 5.6 5.25C1.98 8.87 0.89 14.33 2.86 19.07C4.82 23.8 9.44 26.89 14.57 26.89Z" />
		<path id="Layer" class="shp0" d="M11.46 11.05C11.46 11.67 11.09 12.23 10.51 12.47C9.94 12.7 9.28 12.57 8.84 12.13C8.4 11.69 8.27 11.03 8.5 10.46C8.74 9.88 9.3 9.51 9.92 9.51C10.13 9.51 10.33 9.55 10.51 9.62C10.7 9.7 10.87 9.81 11.01 9.96C11.16 10.1 11.27 10.27 11.35 10.46C11.42 10.64 11.46 10.84 11.46 11.05Z" />
		<path id="Layer" class="shp0" d="M20.97 11.05C20.97 11.67 20.59 12.23 20.02 12.47C19.45 12.7 18.78 12.57 18.35 12.13C17.91 11.69 17.77 11.03 18.01 10.46C18.25 9.88 18.81 9.51 19.43 9.51C19.63 9.51 19.83 9.55 20.02 9.62C20.21 9.7 20.38 9.81 20.52 9.96C20.66 10.1 20.78 10.27 20.85 10.46C20.93 10.64 20.97 10.84 20.97 11.05Z" />
		<path id="Layer" class="shp0" d="M14.55 22.09C15.28 22.09 16.02 22 16.73 21.81C17.45 21.63 18.14 21.36 18.78 21.01C19.43 20.66 20.03 20.23 20.58 19.73C21.12 19.23 21.6 18.66 22 18.04L20.7 17.22C20.04 18.24 19.13 19.08 18.06 19.67C16.98 20.25 15.78 20.55 14.56 20.55C13.34 20.55 12.14 20.25 11.07 19.67C9.99 19.08 9.08 18.24 8.42 17.22L7.12 18.04C7.47 18.59 7.89 19.09 8.35 19.55C8.82 20 9.33 20.4 9.88 20.75C10.43 21.09 11.02 21.37 11.63 21.59C12.24 21.8 12.88 21.95 13.52 22.03C13.6 22.04 13.69 22.05 13.77 22.05C13.86 22.06 13.94 22.07 14.03 22.07C14.11 22.08 14.2 22.08 14.28 22.08C14.37 22.09 14.45 22.09 14.54 22.09L14.55 22.09Z" />
	</g>
</svg>